<?xml version="1.0" encoding="UTF-8" standalone="no"?>
<svg width="376px" height="137px" viewBox="0 0 376 137" version="1.1" xmlns="http://www.w3.org/2000/svg" xmlns:xlink="http://www.w3.org/1999/xlink">
    <!-- Generator: Sketch 41.1 (35376) - http://www.bohemiancoding.com/sketch -->
    <title>Group 2</title>
    <desc>Created with Sketch.</desc>
    <defs></defs>
    <g id="Page-1" stroke="none" stroke-width="1" fill="none" fill-rule="evenodd">
        <g id="Group-2" transform="translate(-1.000000, 0.000000)" fill="#FFFFFF">
            <g id="Group" transform="translate(0.848060, 0.000000)">
                <polygon id="Shape" points="27.3288506 36.7531666 43.9597181 39.2309082 54.3892452 23.9515018 33.8120702 15.8300156"></polygon>
                <g id="Shape" transform="translate(14.503351, 48.178308)">
                    <path d="M47.3556906,32.6235973 L46.7919324,35.1013389 L57.2214594,31.6600312 C57.362399,31.3847265 57.5033386,31.1094219 57.6442781,30.8341173 L47.3556906,32.6235973 L47.3556906,32.6235973 Z"></path>
                    <path d="M1.97315377,29.8705511 C2.11409333,30.1458558 2.25503288,30.5588127 2.39597244,30.8341173 L16.0671093,10.7368801 L9.02013154,0.825913856 L0.845637332,27.3928096 C1.268456,28.2187234 1.55033511,29.0446373 1.97315377,29.8705511"></path>
                    <path d="M36.7852239,57.401013 L39.8858941,44.048739 L38.7583777,42.3969113 L11.2751644,51.619616 C12.68456,55.0609238 13.6711369,57.2633607 13.6711369,57.2633607 L36.7852239,57.2633607 L36.7852239,57.401013 Z"></path>
                </g>
                <polygon id="Shape" points="41.140927 43.3604775 26.0603946 41.1580405 25.2147573 43.6357821 33.2483119 54.9232714"></polygon>
                <g id="Shape" transform="translate(18.731538, 46.801785)">
                    <path d="M43.8322017,30.5588127 L54.825487,28.494028 C58.9127341,20.2348895 64.973135,12.5263602 67.9328656,3.30365543 L50.7382399,0.825913856 L43.8322017,30.5588127 L43.8322017,30.5588127 Z"></path>
                    <path d="M43.1275039,55.7491853 L39.3221359,50.3807452 L37.3489821,58.7775361 L41.8590479,58.7775361 C41.7181084,58.7775361 42.2818666,57.6763176 43.1275039,55.7491853"></path>
                    <path d="M0.986576887,38.6802989 L27.3422737,33.7248158 L14.7986533,16.1053202 L0.281879111,37.1661235 C0.563758221,37.7167328 0.704697776,38.1296897 0.986576887,38.6802989"></path>
                </g>
                <polygon id="Shape" points="66.0872283 42.5345636 69.046959 29.5952465 58.7583714 25.6033295 49.0335421 39.9191697"></polygon>
                <path d="M19.4362355,35.6519481 L22.6778453,36.2025574 L29.4429439,14.3158402 L15.7718071,8.94740011 C12.2483182,11.4251417 9.00670842,14.4534925 6.61073598,17.8948002 L19.4362355,35.6519481 L19.4362355,35.6519481 Z" id="Shape"></path>
                <polygon id="Shape" points="52.9798497 82.4537333 55.093943 85.3444318 56.0805199 84.9314749 56.9261572 81.6278195"></polygon>
                <polygon id="Shape" points="46.214751 44.048739 36.067103 58.9151884 51.0066959 79.5630348 57.630855 78.1865117 64.9597119 46.8017852"></polygon>
                <g id="Shape">
                    <path d="M48.0469652,83.4172995 L20.9865706,88.5104349 C22.1140871,90.9881765 23.100664,93.4659181 24.0872408,95.8060073 L50.5838772,86.8586072 L48.0469652,83.4172995 L48.0469652,83.4172995 Z"></path>
                    <path d="M69.7516567,26.4292434 L73.6979643,9.36035704 C72.852327,8.67209549 72.0066896,8.12148625 71.0201127,7.57087702 L60.5905857,22.8502834 L69.7516567,26.4292434 L69.7516567,26.4292434 Z"></path>
                    <path d="M47.6241466,121.546989 L27.1879111,115.490288 L27.1879111,117.555072 C27.1879111,122.372903 28.1744879,126.36482 29.3020044,126.36482 L46.4966301,126.36482 L47.6241466,121.546989 L47.6241466,121.546989 Z"></path>
                    <path d="M4.21476355,22.0243695 C2.52348888,25.3280249 1.39597244,28.906985 0.832214219,32.7612496 L13.3758346,34.5507297 L4.21476355,22.0243695 L4.21476355,22.0243695 Z"></path>
                    <path d="M45.6509928,129.94378 L31.1342186,129.94378 C33.8120702,133.935697 38.604015,136.688743 43.9597181,136.826396 L45.6509928,129.94378 L45.6509928,129.94378 Z"></path>
                    <path d="M70.5972941,43.0851728 L87.9328594,45.7005667 C88.2147385,44.048739 88.4966176,42.259259 88.4966176,40.469779 L88.4966176,37.1661235 L73.4160852,31.2470742 L70.5972941,43.0851728 L70.5972941,43.0851728 Z"></path>
                    <path d="M48.8926026,136.138134 C52.557031,135.036916 55.6577012,132.834479 57.630855,129.806128 L50.4429377,129.806128 L48.8926026,136.138134 L48.8926026,136.138134 Z"></path>
                    <path d="M51.9932728,122.78586 L51.1476355,126.36482 L59.4630692,126.36482 C59.8858879,126.36482 60.167767,125.951863 60.4496461,125.263602 L51.9932728,122.78586 L51.9932728,122.78586 Z"></path>
                    <path d="M12.2483182,69.9273732 L20.1409333,44.3240436 L16.758384,39.6438651 L0.268455997,37.1661235 L0.268455997,40.3321266 C0.691274663,51.8949206 7.03355465,60.8423207 12.2483182,69.9273732"></path>
                    <path d="M61.5771625,117.555072 C61.5771625,112.599589 60.5905857,108.745324 59.4630692,108.745324 L55.3758221,108.745324 L52.8389101,119.757509 L61.2952834,122.235251 C61.436223,120.858728 61.5771625,119.2069 61.5771625,117.555072"></path>
                    <path d="M50.5838772,108.745324 L29.3020044,108.745324 C28.5973066,108.745324 28.0335484,110.121848 27.6107297,112.324284 L48.3288443,118.380986 L50.5838772,108.745324 L50.5838772,108.745324 Z"></path>
                    <path d="M30.5704604,11.0121848 L33.530191,1.37652309 C28.4563671,2.47774157 23.6644222,4.12956928 19.4362355,6.60731085 L30.5704604,11.0121848 L30.5704604,11.0121848 Z"></path>
                    <path d="M60.0268274,88.3727826 L59.3221297,91.2634811 L63.8321954,97.5954874 C65.3825305,93.878875 67.3556843,89.3363488 69.1878985,85.2067795 L60.0268274,88.3727826 L60.0268274,88.3727826 Z"></path>
                    <path d="M38.4630755,0.688261547 L34.798647,12.8016648 L56.362399,21.1984556 L67.0738052,5.50609238 C60.167767,2.20243695 52.2751519,0.412956928 44.3825368,0.412956928 C42.409383,0.275304619 40.4362293,0.412956928 38.4630755,0.688261547"></path>
                    <path d="M77.6442718,12.6640125 L74.120783,28.0810711 L88.2147385,33.5871635 C87.087222,25.0527203 83.1409145,18.0324525 77.6442718,12.6640125"></path>
                </g>
            </g>
            <path d="M110.375762,43.5791063 C108.323752,43.5791063 106.360438,43.2307764 104.485762,42.5341063 C102.611086,41.8374361 100.87577,40.7671135 99.2797622,39.3231063 L102.091762,35.9791063 C103.383769,37.0937785 104.688422,37.94877 106.005762,38.5441063 C107.323102,39.1394426 108.817754,39.4371063 110.489762,39.4371063 C111.933769,39.4371063 113.080091,39.1331093 113.928762,38.5251063 C114.777433,37.9171033 115.201762,37.1064447 115.201762,36.0931063 L115.201762,36.0171063 C115.201762,35.5357706 115.11943,35.1114415 114.954762,34.7441063 C114.790095,34.3767711 114.486098,34.0284413 114.042762,33.6991063 C113.599427,33.3697713 112.991433,33.0657744 112.218762,32.7871063 C111.446092,32.5084382 110.439102,32.2297744 109.197762,31.9511063 C107.779088,31.6217713 106.518768,31.2481084 105.416762,30.8301063 C104.314757,30.4121042 103.390099,29.9054426 102.642762,29.3101063 C101.895425,28.71477 101.325431,27.9864439 100.932762,27.1251063 C100.540094,26.2637687 100.343762,25.2251124 100.343762,24.0091063 L100.343762,23.9331063 C100.343762,22.7931006 100.57176,21.748111 101.027762,20.7981063 C101.483764,19.8481015 102.110758,19.037443 102.908762,18.3661063 C103.706766,17.6947696 104.66309,17.1691082 105.777762,16.7891063 C106.892434,16.4091044 108.108422,16.2191063 109.425762,16.2191063 C111.376439,16.2191063 113.130754,16.5041034 114.688762,17.0741063 C116.24677,17.6441091 117.709755,18.4737675 119.077762,19.5631063 L116.569762,23.0971063 C115.353756,22.2104352 114.150435,21.5327753 112.959762,21.0641063 C111.76909,20.5954373 110.565768,20.3611063 109.349762,20.3611063 C107.981755,20.3611063 106.917766,20.6651033 106.157762,21.2731063 C105.397758,21.8811093 105.017762,22.6284352 105.017762,23.5151063 L105.017762,23.5911063 C105.017762,24.0977755 105.106428,24.5474377 105.283762,24.9401063 C105.461096,25.3327749 105.784093,25.687438 106.252762,26.0041063 C106.721431,26.3207745 107.367425,26.6184382 108.190762,26.8971063 C109.0141,27.1757744 110.059089,27.4671048 111.325762,27.7711063 C112.719102,28.1257747 113.95409,28.5184375 115.030762,28.9491063 C116.107434,29.3797751 117.000425,29.9054365 117.709762,30.5261063 C118.419099,31.1467761 118.957427,31.8687688 119.324762,32.6921063 C119.692097,33.5154437 119.875762,34.4717675 119.875762,35.5611063 L119.875762,35.6371063 C119.875762,36.8784458 119.641431,37.9931014 119.172762,38.9811063 C118.704093,39.9691112 118.051766,40.8051029 117.215762,41.4891063 C116.379758,42.1731097 115.379101,42.6924379 114.213762,43.0471063 C113.048423,43.4017747 111.769102,43.5791063 110.375762,43.5791063 Z M136.291762,43.6171063 C134.569087,43.6171063 133.011102,43.3701088 131.617762,42.8761063 C130.224422,42.3821038 129.033767,41.6411112 128.045762,40.6531063 C127.057757,39.6651014 126.297765,38.4427802 125.765762,36.9861063 C125.23376,35.5294323 124.967762,33.8384493 124.967762,31.9131063 L124.967762,16.5991063 L129.641762,16.5991063 L129.641762,31.7231063 C129.641762,34.2057854 130.23709,36.0930998 131.427762,37.3851063 C132.618435,38.6771128 134.265085,39.3231063 136.367762,39.3231063 C138.445106,39.3231063 140.07909,38.7024458 141.269762,37.4611063 C142.460435,36.2197668 143.055762,34.3704519 143.055762,31.9131063 L143.055762,16.5991063 L147.729762,16.5991063 L147.729762,31.6851063 C147.729762,33.6611162 147.457432,35.3964322 146.912762,36.8911063 C146.368093,38.3857804 145.601767,39.6334346 144.613762,40.6341063 C143.625757,41.634778 142.428769,42.3821038 141.022762,42.8761063 C139.616755,43.3701088 138.039771,43.6171063 136.291762,43.6171063 Z M163.461762,43.5791063 C161.409752,43.5791063 159.446438,43.2307764 157.571762,42.5341063 C155.697086,41.8374361 153.96177,40.7671135 152.365762,39.3231063 L155.177762,35.9791063 C156.469769,37.0937785 157.774422,37.94877 159.091762,38.5441063 C160.409102,39.1394426 161.903754,39.4371063 163.575762,39.4371063 C165.019769,39.4371063 166.166091,39.1331093 167.014762,38.5251063 C167.863433,37.9171033 168.287762,37.1064447 168.287762,36.0931063 L168.287762,36.0171063 C168.287762,35.5357706 168.20543,35.1114415 168.040762,34.7441063 C167.876095,34.3767711 167.572098,34.0284413 167.128762,33.6991063 C166.685427,33.3697713 166.077433,33.0657744 165.304762,32.7871063 C164.532092,32.5084382 163.525102,32.2297744 162.283762,31.9511063 C160.865088,31.6217713 159.604768,31.2481084 158.502762,30.8301063 C157.400757,30.4121042 156.476099,29.9054426 155.728762,29.3101063 C154.981425,28.71477 154.411431,27.9864439 154.018762,27.1251063 C153.626094,26.2637687 153.429762,25.2251124 153.429762,24.0091063 L153.429762,23.9331063 C153.429762,22.7931006 153.65776,21.748111 154.113762,20.7981063 C154.569764,19.8481015 155.196758,19.037443 155.994762,18.3661063 C156.792766,17.6947696 157.74909,17.1691082 158.863762,16.7891063 C159.978434,16.4091044 161.194422,16.2191063 162.511762,16.2191063 C164.462439,16.2191063 166.216754,16.5041034 167.774762,17.0741063 C169.33277,17.6441091 170.795755,18.4737675 172.163762,19.5631063 L169.655762,23.0971063 C168.439756,22.2104352 167.236435,21.5327753 166.045762,21.0641063 C164.85509,20.5954373 163.651768,20.3611063 162.435762,20.3611063 C161.067755,20.3611063 160.003766,20.6651033 159.243762,21.2731063 C158.483758,21.8811093 158.103762,22.6284352 158.103762,23.5151063 L158.103762,23.5911063 C158.103762,24.0977755 158.192428,24.5474377 158.369762,24.9401063 C158.547096,25.3327749 158.870093,25.687438 159.338762,26.0041063 C159.807431,26.3207745 160.453425,26.6184382 161.276762,26.8971063 C162.1001,27.1757744 163.145089,27.4671048 164.411762,27.7711063 C165.805102,28.1257747 167.04009,28.5184375 168.116762,28.9491063 C169.193434,29.3797751 170.086425,29.9054365 170.795762,30.5261063 C171.505099,31.1467761 172.043427,31.8687688 172.410762,32.6921063 C172.778097,33.5154437 172.961762,34.4717675 172.961762,35.5611063 L172.961762,35.6371063 C172.961762,36.8784458 172.727431,37.9931014 172.258762,38.9811063 C171.790093,39.9691112 171.137766,40.8051029 170.301762,41.4891063 C169.465758,42.1731097 168.465101,42.6924379 167.299762,43.0471063 C166.134423,43.4017747 164.855102,43.5791063 163.461762,43.5791063 Z M185.007762,20.9311063 L176.571762,20.9311063 L176.571762,16.5991063 L198.155762,16.5991063 L198.155762,20.9311063 L189.719762,20.9311063 L189.719762,43.1991063 L185.007762,43.1991063 L185.007762,20.9311063 Z M219.207762,32.6351063 L214.609762,21.9951063 L210.049762,32.6351063 L219.207762,32.6351063 Z M212.519762,16.4091063 L216.851762,16.4091063 L228.555762,43.1991063 L223.615762,43.1991063 L220.917762,36.7771063 L208.339762,36.7771063 L205.603762,43.1991063 L200.815762,43.1991063 L212.519762,16.4091063 Z M233.381762,16.5991063 L238.055762,16.5991063 L238.055762,43.1991063 L233.381762,43.1991063 L233.381762,16.5991063 Z M245.161762,16.5991063 L249.493762,16.5991063 L263.743762,34.9911063 L263.743762,16.5991063 L268.341762,16.5991063 L268.341762,43.1991063 L264.427762,43.1991063 L249.759762,24.2751063 L249.759762,43.1991063 L245.161762,43.1991063 L245.161762,16.5991063 Z M291.293762,32.6351063 L286.695762,21.9951063 L282.135762,32.6351063 L291.293762,32.6351063 Z M284.605762,16.4091063 L288.937762,16.4091063 L300.641762,43.1991063 L295.701762,43.1991063 L293.003762,36.7771063 L280.425762,36.7771063 L277.689762,43.1991063 L272.901762,43.1991063 L284.605762,16.4091063 Z M317.551762,39.0571063 C319.14777,39.0571063 320.401758,38.7531093 321.313762,38.1451063 C322.225767,37.5371033 322.681762,36.6251124 322.681762,35.4091063 L322.681762,35.3331063 C322.681762,34.1931006 322.2321,33.3127761 321.332762,32.6921063 C320.433424,32.0714365 319.059105,31.7611063 317.209762,31.7611063 L309.799762,31.7611063 L309.799762,39.0571063 L317.551762,39.0571063 Z M316.183762,27.8091063 C317.70377,27.8091063 318.919758,27.5114426 319.831762,26.9161063 C320.743767,26.32077 321.199762,25.4151124 321.199762,24.1991063 L321.199762,24.1231063 C321.199762,23.059101 320.800766,22.2294426 320.002762,21.6341063 C319.204758,21.03877 318.04577,20.7411063 316.525762,20.7411063 L309.799762,20.7411063 L309.799762,27.8091063 L316.183762,27.8091063 Z M305.201762,16.5991063 L317.133762,16.5991063 C320.199111,16.5991063 322.517088,17.3844318 324.087762,18.9551063 C325.278435,20.1457789 325.873762,21.6150976 325.873762,23.3631063 L325.873762,23.4391063 C325.873762,24.249777 325.766097,24.9654365 325.550762,25.5861063 C325.335428,26.2067761 325.056764,26.7514373 324.714762,27.2201063 C324.37276,27.6887753 323.967431,28.1004379 323.498762,28.4551063 C323.030093,28.8097747 322.555098,29.1137717 322.073762,29.3671063 C322.859099,29.6457744 323.574759,29.9687711 324.220762,30.3361063 C324.866765,30.7034415 325.424093,31.1404371 325.892762,31.6471063 C326.361431,32.1537755 326.722428,32.7491029 326.975762,33.4331063 C327.229097,34.1171097 327.355762,34.9151017 327.355762,35.8271063 L327.355762,35.9031063 C327.355762,37.0937789 327.121431,38.1451017 326.652762,39.0571063 C326.184093,39.9691109 325.5191,40.7291033 324.657762,41.3371063 C323.796425,41.9451093 322.757768,42.407438 321.541762,42.7241063 C320.325756,43.0407745 318.983103,43.1991063 317.513762,43.1991063 L305.201762,43.1991063 L305.201762,16.5991063 Z M332.637762,16.5991063 L337.311762,16.5991063 L337.311762,38.9431063 L351.295762,38.9431063 L351.295762,43.1991063 L332.637762,43.1991063 L332.637762,16.5991063 Z M356.159762,16.5991063 L375.881762,16.5991063 L375.881762,20.7791063 L360.833762,20.7791063 L360.833762,27.6951063 L374.171762,27.6951063 L374.171762,31.8751063 L360.833762,31.8751063 L360.833762,39.0191063 L376.071762,39.0191063 L376.071762,43.1991063 L356.159762,43.1991063 L356.159762,16.5991063 Z" id="SUSTAINABLE"></path>
            <path d="M97.0657622,56.1235531 L116.787762,56.1235531 L116.787762,60.3035531 L101.739762,60.3035531 L101.739762,67.2195531 L115.077762,67.2195531 L115.077762,71.3995531 L101.739762,71.3995531 L101.739762,78.5435531 L116.977762,78.5435531 L116.977762,82.7235531 L97.0657622,82.7235531 L97.0657622,56.1235531 Z M132.443762,78.4675531 C133.837102,78.4675531 135.103756,78.2458887 136.243762,77.8025531 C137.383768,77.3592176 138.352758,76.7385571 139.150762,75.9405531 C139.948766,75.1425491 140.569427,74.1925586 141.012762,73.0905531 C141.456098,71.9885476 141.677762,70.7915596 141.677762,69.4995531 L141.677762,69.4235531 C141.677762,68.1315466 141.456098,66.9282253 141.012762,65.8135531 C140.569427,64.6988809 139.948766,63.7425571 139.150762,62.9445531 C138.352758,62.1465491 137.383768,61.5195554 136.243762,61.0635531 C135.103756,60.6075508 133.837102,60.3795531 132.443762,60.3795531 L127.199762,60.3795531 L127.199762,78.4675531 L132.443762,78.4675531 Z M122.525762,56.1235531 L132.443762,56.1235531 C134.521106,56.1235531 136.42742,56.4592164 138.162762,57.1305531 C139.898104,57.8018898 141.392756,58.7328805 142.646762,59.9235531 C143.900768,61.1142257 144.869759,62.5138784 145.553762,64.1225531 C146.237766,65.7312278 146.579762,67.4728771 146.579762,69.3475531 L146.579762,69.4235531 C146.579762,71.2982291 146.237766,73.0462117 145.553762,74.6675531 C144.869759,76.2888945 143.900768,77.6948805 142.646762,78.8855531 C141.392756,80.0762257 139.898104,81.0135497 138.162762,81.6975531 C136.42742,82.3815565 134.521106,82.7235531 132.443762,82.7235531 L122.525762,82.7235531 L122.525762,56.1235531 Z M163.147762,83.1415531 C161.425087,83.1415531 159.867102,82.8945556 158.473762,82.4005531 C157.080422,81.9065506 155.889767,81.165558 154.901762,80.1775531 C153.913757,79.1895482 153.153765,77.9672271 152.621762,76.5105531 C152.08976,75.0538792 151.823762,73.3628961 151.823762,71.4375531 L151.823762,56.1235531 L156.497762,56.1235531 L156.497762,71.2475531 C156.497762,73.7302322 157.09309,75.6175466 158.283762,76.9095531 C159.474435,78.2015596 161.121085,78.8475531 163.223762,78.8475531 C165.301106,78.8475531 166.93509,78.2268926 168.125762,76.9855531 C169.316435,75.7442136 169.911762,73.8948987 169.911762,71.4375531 L169.911762,56.1235531 L174.585762,56.1235531 L174.585762,71.2095531 C174.585762,73.185563 174.313432,74.920879 173.768762,76.4155531 C173.224093,77.9102272 172.457767,79.1578814 171.469762,80.1585531 C170.481757,81.1592248 169.284769,81.9065506 167.878762,82.4005531 C166.472755,82.8945556 164.895771,83.1415531 163.147762,83.1415531 Z M193.357762,83.1795531 C191.407086,83.1795531 189.608437,82.82489 187.961762,82.1155531 C186.315087,81.4062162 184.890102,80.4372259 183.686762,79.2085531 C182.483423,77.9798803 181.539766,76.5295615 180.855762,74.8575531 C180.171759,73.1855447 179.829762,71.3995626 179.829762,69.4995531 L179.829762,69.4235531 C179.829762,67.5235436 180.165426,65.7438947 180.836762,64.0845531 C181.508099,62.4252115 182.451756,60.9685594 183.667762,59.7145531 C184.883768,58.4605468 186.327754,57.4725567 187.999762,56.7505531 C189.671771,56.0285495 191.521085,55.6675531 193.547762,55.6675531 C194.763768,55.6675531 195.872091,55.7688854 196.872762,55.9715531 C197.873434,56.1742208 198.791758,56.4592179 199.627762,56.8265531 C200.463766,57.1938883 201.236425,57.6308839 201.945762,58.1375531 C202.655099,58.6442223 203.326426,59.2015501 203.959762,59.8095531 L200.957762,63.2675531 C199.893757,62.2795482 198.766435,61.4815561 197.575762,60.8735531 C196.38509,60.2655501 195.02977,59.9615531 193.509762,59.9615531 C192.243089,59.9615531 191.071434,60.2085506 189.994762,60.7025531 C188.91809,61.1965556 187.987099,61.8678822 187.201762,62.7165531 C186.416425,63.565224 185.808431,64.5595474 185.377762,65.6995531 C184.947093,66.8395588 184.731762,68.0555466 184.731762,69.3475531 L184.731762,69.4235531 C184.731762,70.7155596 184.947093,71.9378807 185.377762,73.0905531 C185.808431,74.2432255 186.416425,75.2502155 187.201762,76.1115531 C187.987099,76.9728907 188.91809,77.6505506 189.994762,78.1445531 C191.071434,78.6385556 192.243089,78.8855531 193.509762,78.8855531 C195.131104,78.8855531 196.524423,78.5752229 197.689762,77.9545531 C198.855101,77.3338833 200.007756,76.4915584 201.147762,75.4275531 L204.149762,78.4675531 C203.465759,79.2022234 202.750099,79.8545503 202.002762,80.4245531 C201.255425,80.994556 200.4511,81.488551 199.589762,81.9065531 C198.728425,82.3245552 197.784767,82.6412187 196.758762,82.8565531 C195.732757,83.0718875 194.599102,83.1795531 193.357762,83.1795531 Z M225.163762,72.1595531 L220.565762,61.5195531 L216.005762,72.1595531 L225.163762,72.1595531 Z M218.475762,55.9335531 L222.807762,55.9335531 L234.511762,82.7235531 L229.571762,82.7235531 L226.873762,76.3015531 L214.295762,76.3015531 L211.559762,82.7235531 L206.771762,82.7235531 L218.475762,55.9335531 Z M245.607762,60.4555531 L237.171762,60.4555531 L237.171762,56.1235531 L258.755762,56.1235531 L258.755762,60.4555531 L250.319762,60.4555531 L250.319762,82.7235531 L245.607762,82.7235531 L245.607762,60.4555531 Z M263.961762,56.1235531 L268.635762,56.1235531 L268.635762,82.7235531 L263.961762,82.7235531 L263.961762,56.1235531 Z M288.509762,78.8855531 C289.827102,78.8855531 291.036757,78.6385556 292.138762,78.1445531 C293.240768,77.6505506 294.184425,76.979224 294.969762,76.1305531 C295.755099,75.2818822 296.369427,74.2875588 296.812762,73.1475531 C297.256098,72.0075474 297.477762,70.7915596 297.477762,69.4995531 L297.477762,69.4235531 C297.477762,68.1315466 297.256098,66.9092255 296.812762,65.7565531 C296.369427,64.6038807 295.748766,63.603224 294.950762,62.7545531 C294.152758,61.9058822 293.196434,61.2282223 292.081762,60.7215531 C290.96709,60.2148839 289.751102,59.9615531 288.433762,59.9615531 C287.116422,59.9615531 285.906768,60.2085506 284.804762,60.7025531 C283.702757,61.1965556 282.759099,61.8678822 281.973762,62.7165531 C281.188425,63.565224 280.574098,64.5595474 280.130762,65.6995531 C279.687427,66.8395588 279.465762,68.0555466 279.465762,69.3475531 L279.465762,69.4235531 C279.465762,70.7155596 279.687427,71.9378807 280.130762,73.0905531 C280.574098,74.2432255 281.194758,75.2438822 281.992762,76.0925531 C282.790766,76.941224 283.74709,77.6188839 284.861762,78.1255531 C285.976434,78.6322223 287.192422,78.8855531 288.509762,78.8855531 Z M288.433762,83.1795531 C286.381752,83.1795531 284.507104,82.8185567 282.809762,82.0965531 C281.11242,81.3745495 279.655768,80.3928926 278.439762,79.1515531 C277.223756,77.9102136 276.273766,76.4598947 275.589762,74.8005531 C274.905759,73.1412115 274.563762,71.3742291 274.563762,69.4995531 L274.563762,69.4235531 C274.563762,67.5488771 274.905759,65.7818947 275.589762,64.1225531 C276.273766,62.4632115 277.236423,61.0065594 278.477762,59.7525531 C279.719102,58.4985468 281.18842,57.5042234 282.885762,56.7695531 C284.583104,56.0348828 286.457752,55.6675531 288.509762,55.6675531 C290.561772,55.6675531 292.43642,56.0285495 294.133762,56.7505531 C295.831104,57.4725567 297.287756,58.4542136 298.503762,59.6955531 C299.719768,60.9368926 300.669759,62.3872115 301.353762,64.0465531 C302.037766,65.7058947 302.379762,67.4728771 302.379762,69.3475531 L302.379762,69.4235531 C302.379762,71.2982291 302.037766,73.0652115 301.353762,74.7245531 C300.669759,76.3838947 299.707102,77.8405468 298.465762,79.0945531 C297.224423,80.3485594 295.755104,81.3428828 294.057762,82.0775531 C292.36042,82.8122234 290.485772,83.1795531 288.433762,83.1795531 Z M308.041762,56.1235531 L312.373762,56.1235531 L326.623762,74.5155531 L326.623762,56.1235531 L331.221762,56.1235531 L331.221762,82.7235531 L327.307762,82.7235531 L312.639762,63.7995531 L312.639762,82.7235531 L308.041762,82.7235531 L308.041762,56.1235531 Z" id="EDUCATION"></path>
            <path d="M93.8260596,121.655106 C91.7487159,121.655106 89.8614014,121.306776 88.1640596,120.610106 C86.4667178,119.913436 85.016399,118.950779 83.8130596,117.722106 C82.6097203,116.493433 81.6787296,115.049448 81.0200596,113.390106 C80.3613896,111.730764 80.0320596,109.925782 80.0320596,107.975106 L80.0320596,107.899106 C80.0320596,106.049763 80.3677229,104.289114 81.0390596,102.617106 C81.7103963,100.945098 82.6540535,99.4821123 83.8700596,98.228106 C85.0860657,96.9740997 86.5363845,95.9797763 88.2210596,95.245106 C89.9057347,94.5104357 91.7487163,94.143106 93.7500596,94.143106 C94.9153988,94.143106 95.9730549,94.2254385 96.9230596,94.390106 C97.8730644,94.5547735 98.7533889,94.7891045 99.5640596,95.093106 C100.37473,95.3971075 101.141056,95.7707705 101.86306,96.214106 C102.585063,96.6574416 103.288056,97.1704364 103.97206,97.753106 L101.00806,101.287106 C100.50139,100.856437 99.9820623,100.463774 99.4500596,100.109106 C98.9180569,99.7544376 98.3607292,99.4567739 97.7780596,99.216106 C97.19539,98.9754381 96.5557298,98.78544 95.8590596,98.646106 C95.1623895,98.506772 94.3960638,98.437106 93.5600596,98.437106 C92.3440535,98.437106 91.2103982,98.6904368 90.1590596,99.197106 C89.107721,99.7037752 88.1957301,100.381435 87.4230596,101.230106 C86.6503891,102.078777 86.0423952,103.0731 85.5990596,104.213106 C85.1557241,105.353112 84.9340596,106.556433 84.9340596,107.823106 L84.9340596,107.899106 C84.9340596,109.267113 85.1493908,110.533767 85.5800596,111.699106 C86.0107284,112.864445 86.6250556,113.865102 87.4230596,114.701106 C88.2210636,115.53711 89.1710541,116.19577 90.2730596,116.677106 C91.3750651,117.158442 92.6100528,117.399106 93.9780596,117.399106 C95.2447326,117.399106 96.4290541,117.215441 97.5310596,116.848106 C98.6330651,116.480771 99.5893889,115.993109 100.40006,115.385106 L100.40006,110.407106 L93.5980596,110.407106 L93.5980596,106.341106 L104.92206,106.341106 L104.92206,117.513106 C104.26339,118.070442 103.535064,118.602437 102.73706,119.109106 C101.939056,119.615775 101.077731,120.059104 100.15306,120.439106 C99.2283883,120.819108 98.2340649,121.116772 97.1700596,121.332106 C96.1060543,121.54744 94.9913988,121.655106 93.8260596,121.655106 Z M111.00206,94.599106 L115.67606,94.599106 L115.67606,105.657106 L128.36806,105.657106 L128.36806,94.599106 L133.04206,94.599106 L133.04206,121.199106 L128.36806,121.199106 L128.36806,109.989106 L115.67606,109.989106 L115.67606,121.199106 L111.00206,121.199106 L111.00206,94.599106 Z M155.99406,110.635106 L151.39606,99.995106 L146.83606,110.635106 L155.99406,110.635106 Z M149.30606,94.409106 L153.63806,94.409106 L165.34206,121.199106 L160.40206,121.199106 L157.70406,114.777106 L145.12606,114.777106 L142.39006,121.199106 L137.60206,121.199106 L149.30606,94.409106 Z M169.90206,94.599106 L174.23406,94.599106 L188.48406,112.991106 L188.48406,94.599106 L193.08206,94.599106 L193.08206,121.199106 L189.16806,121.199106 L174.50006,102.275106 L174.50006,121.199106 L169.90206,121.199106 L169.90206,94.599106 Z M216.03406,110.635106 L211.43606,99.995106 L206.87606,110.635106 L216.03406,110.635106 Z M209.34606,94.409106 L213.67806,94.409106 L225.38206,121.199106 L220.44206,121.199106 L217.74406,114.777106 L205.16606,114.777106 L202.43006,121.199106 L197.64206,121.199106 L209.34606,94.409106 Z" id="GHANA"></path>
        </g>
    </g>
</svg>