<?xml version="1.0" encoding="UTF-8"?>
<svg width="50px" height="60px" viewBox="0 0 50 60" version="1.1" xmlns="http://www.w3.org/2000/svg" xmlns:xlink="http://www.w3.org/1999/xlink">
    <!-- Generator: Sketch 48.1 (47250) - http://www.bohemiancoding.com/sketch -->
    <title>Shape</title>
    <desc>Created with Sketch.</desc>
    <defs></defs>
    <g id="Page-1" stroke="none" stroke-width="1" fill="none" fill-rule="evenodd">
        <g id="nepal" transform="translate(-35.000000, -28.000000)" fill="#FFFFFF" fill-rule="nonzero">
            <path d="M47.4137931,64.6212534 L48.7931034,67.5640327 C48.7931034,67.5640327 48.7931034,67.5640327 48.7931034,67.5640327 L48.9655172,67.5640327 L51.5517241,65.6021798 L51.2068966,68.7084469 L51.2068966,68.8719346 C51.2068966,68.8719346 51.2068966,68.8719346 51.2068966,68.8719346 L51.3793103,68.8719346 L54.6551724,68.5449591 L52.5862069,70.9972752 L52.5862069,71.1607629 C52.5862069,71.1607629 52.5862069,71.1607629 52.5862069,71.1607629 L52.5862069,71.3242507 L55.6896552,72.4686649 L52.5862069,73.613079 C52.5862069,73.613079 52.5862069,73.613079 52.5862069,73.613079 L52.5862069,73.7765668 L54.6551724,76.2288828 L51.3793103,75.9019074 L51.2068966,75.9019074 C51.2068966,75.9019074 51.2068966,75.9019074 51.2068966,75.9019074 L51.2068966,76.0653951 L51.5517241,79.1716621 L48.9655172,77.2098093 L48.7931034,77.2098093 C48.7931034,77.2098093 48.7931034,77.2098093 48.7931034,77.2098093 L48.6206897,77.2098093 L47.2413793,80.1525886 L45.862069,77.2098093 C45.862069,77.2098093 45.862069,77.2098093 45.862069,77.2098093 L45.6896552,77.2098093 L43.1034483,79.1716621 L43.4482759,76.0653951 L43.4482759,75.9019074 C43.4482759,75.9019074 43.4482759,75.9019074 43.4482759,75.9019074 L43.2758621,75.9019074 L40,76.2288828 L42.0689655,73.7765668 L42.0689655,73.613079 C42.0689655,73.613079 42.0689655,73.613079 42.0689655,73.613079 L42.0689655,73.4495913 L38.9655172,72.3051771 L42.0689655,71.1607629 C42.0689655,71.1607629 42.0689655,71.1607629 42.0689655,71.1607629 L42.0689655,70.9972752 L40,68.5449591 L43.2758621,68.8719346 L43.4482759,68.8719346 C43.4482759,68.8719346 43.4482759,68.8719346 43.4482759,68.8719346 L43.4482759,68.7084469 L43.1034483,65.6021798 L45.6896552,67.5640327 L45.862069,67.5640327 C45.862069,67.5640327 45.862069,67.5640327 45.862069,67.5640327 L46.0344828,67.5640327 L47.4137931,64.6212534 Z M48.4482759,44.5122616 L48.7931034,46.147139 L50.3448276,45.3297003 L50.1724138,46.9645777 L51.8965517,46.8010899 L51.0344828,48.2724796 L52.7586207,48.599455 L51.5517241,49.4168937 L51.7241379,49.4168937 L51.5517241,49.4168937 L52.2413793,49.9073569 C53.7931034,48.9264305 55.1724138,47.6185286 55.862069,45.9836512 C55.6896552,50.2343324 52.0689655,53.5040872 47.5862069,53.5040872 C43.1034483,53.5040872 39.4827586,50.0708447 39.3103448,45.9836512 C40,47.6185286 41.3793103,49.0899183 42.9310345,49.9073569 L43.6206897,49.4168937 L43.4482759,49.4168937 L43.6206897,49.4168937 L42.4137931,48.599455 L44.137931,48.2724796 L43.2758621,46.8010899 L45,46.9645777 L44.8275862,45.3297003 L46.2068966,46.147139 C46.2068966,46.147139 46.2068966,46.147139 46.2068966,46.147139 L46.5517241,44.6757493 L47.5862069,45.9836512 L48.4482759,44.5122616 Z M35,28 L35,88 L83.9655172,88 L51.8965517,57.5912807 L85,57.5912807 L35,28 Z" id="Shape"></path>
        </g>
    </g>
</svg>