<?xml version="1.0" encoding="utf-8"?>
<!-- Generator: Adobe Illustrator 22.0.1, SVG Export Plug-In . SVG Version: 6.00 Build 0)  -->
<svg version="1.1" id="Layer_1" xmlns="http://www.w3.org/2000/svg" xmlns:xlink="http://www.w3.org/1999/xlink" x="0px" y="0px"
	 viewBox="0 0 360 360" style="enable-background:new 0 0 360 360;" xml:space="preserve">
<style type="text/css">
	.st0{fill:#E61E26;}
	.st1{clip-path:url(#SVGID_2_);fill:#FFFFFF;}
</style>
<rect x="112" y="138.7" class="st0" width="83.7" height="83"/>
<g>
	<defs>
		<rect id="SVGID_1_" x="112" y="138.3" width="83.9" height="83.5"/>
	</defs>
	<clipPath id="SVGID_2_">
		<use xlink:href="#SVGID_1_"  style="overflow:visible;"/>
	</clipPath>
	<path class="st1" d="M148.5,183.3L148.5,183.3l0.8,1.8l0,0l0,0v0c0,0,0,0,0,0l0,0h0.1l0,0l1.5-1.2l-0.2,1.9h0l0,0.1c0,0,0,0,0,0h0
		l0.1,0l0,0l1.9-0.2l-1.2,1.5l0,0v0.1h0c0,0,0,0,0,0h0l0,0.1l0,0l1.8,0.7l-1.8,0.7l0,0l0,0h0c0,0,0,0,0,0h0v0.1l0,0l1.2,1.5
		l-1.9-0.2l0,0l-0.1,0h0c0,0,0,0,0,0l0,0.1h0l0.2,1.9l-1.5-1.2l0,0h-0.1h0c0,0,0,0,0,0v0l0,0l-0.1,0l0,0l-0.8,1.8l-0.8-1.8l0,0l0,0
		v0c0,0,0,0,0,0l0,0h-0.1l0,0l-1.5,1.2l0.2-1.9h0l0-0.1c0,0,0,0,0,0h0l-0.1,0l0,0l-1.9,0.2l1.2-1.5l0,0v-0.1h0c0,0,0,0,0,0h0h0h0
		l0-0.1l0,0l-1.8-0.7l1.8-0.7l0,0l0,0h0c0,0,0,0,0,0h0v-0.1l0,0l-1.2-1.5l1.9,0.2l0,0l0.1,0h0c0,0,0,0,0,0h0l0-0.1h0l-0.2-1.9
		l1.5,1.2l0,0h0.1h0c0,0,0,0,0,0l0.1,0l0,0L148.5,183.3z M149.1,171l0.2,1l0.9-0.5l-0.1,1l1-0.1l-0.5,0.9l1,0.2l-0.7,0.5l0,0l0,0h0
		v0v0l0.1,0l-0.1,0l0.4,0.3l0,0c0.9-0.6,1.7-1.4,2.1-2.4c-0.1,2.6-2.2,4.6-4.8,4.6c-2.6,0-4.7-2.1-4.8-4.6c0.4,1,1.2,1.9,2.1,2.4
		l0,0l0.4-0.3l-0.1,0l0.1,0v0h0l0,0l0,0l-0.7-0.5l1-0.2l-0.5-0.9l1,0.1l-0.1-1l0.8,0.5h0h0h0h0l0,0l0,0c0,0,0,0,0,0l0.2-0.9l0.6,0.8
		L149.1,171L149.1,171L149.1,171z M141.3,160.9v36.7h28.4L151.1,179h19.2L141.3,160.9z"/>
</g>
</svg>
